<svg width="52" height="52" viewBox="0 0 52 52" fill="none" xmlns="http://www.w3.org/2000/svg">
<path d="M19.6723 5.01949C20.4376 5.02481 21.2025 5.03014 21.9327 5.03014H29.3618C30.0919 5.03014 30.8568 5.02481 31.6221 5.01949C33.6825 5.00515 35.7459 4.99079 37.1425 5.08022C42.2264 5.4058 45.7326 8.48622 46.1834 13.7204C46.2903 15.6013 46.2877 17.8671 46.2847 20.5392V20.54C46.2841 20.9986 46.2836 21.4692 46.2836 21.9519V29.381C46.2836 29.8637 46.2841 30.3343 46.2847 30.7929C46.2877 33.4654 46.2903 35.7315 46.1834 37.6125C45.7326 42.8467 42.2264 45.9272 37.1425 46.2527C35.7459 46.3422 33.6825 46.3278 31.6221 46.3135C30.8568 46.3081 30.0919 46.3028 29.3618 46.3028H21.9327C21.2025 46.3028 20.4376 46.3081 19.6723 46.3135C17.612 46.3278 15.5486 46.3422 14.152 46.2527C9.06805 45.9272 5.56188 42.8467 5.11108 37.6125C5.0042 35.7316 5.00679 33.4658 5.00983 30.7937V30.7929C5.01036 30.3343 5.01089 29.8637 5.01089 29.381V21.9519C5.01089 21.4692 5.01036 20.9986 5.00983 20.54V20.5392C5.00679 17.8671 5.0042 15.6013 5.11108 13.7204C5.56188 8.48622 9.06805 5.4058 14.152 5.08022C15.5486 4.99079 17.612 5.00515 19.6723 5.01949Z" fill="url(#paint0_linear_1_17)"/>
<path d="M16.1942 29H27.974L29.4734 31.25H16.1942C14.7598 31.25 13.5971 32.2574 13.5971 33.5C13.5971 34.7426 14.7598 35.75 16.1942 35.75H32.4723C33.4389 37.1999 35.1964 38.0075 37 37.9999C36.9903 38 36.9806 38 36.9709 38H16.1942C13.3255 38 11 35.9853 11 33.5C11 31.0147 13.3255 29 16.1942 29Z" fill="url(#paint1_linear_1_17)"/>
<path d="M16.1942 32.375H30.2231L31.7226 34.625H16.1942C15.477 34.625 14.8956 34.1213 14.8956 33.5C14.8956 32.8787 15.477 32.375 16.1942 32.375Z" fill="url(#paint2_linear_1_17)"/>
<path d="M32.6695 35.4836L27 25.6024L28.4433 23.0868L34.8344 34.2258C35.5247 35.429 37.0537 35.8412 38.2493 35.1466C39.445 34.452 39.8547 32.9135 39.1644 31.7103L31.3299 18.0557C32.2598 16.4344 32.191 14.5087 31.3157 13C31.3204 13.0081 31.3251 13.0162 31.3298 13.0244L41.3293 30.4525C42.71 32.8589 41.8906 35.9358 39.4993 37.3251C37.1079 38.7144 34.0501 37.8899 32.6695 35.4836Z" fill="url(#paint3_linear_1_17)"/>
<path d="M35.9169 33.597L29.165 21.829L30.6083 19.3135L38.0819 32.3392C38.427 32.9408 38.2222 33.71 37.6244 34.0573C37.0265 34.4047 36.2621 34.1985 35.9169 33.597Z" fill="url(#paint4_linear_1_17)"/>
<path d="M31.3066 18.5592L25.4449 28.4558H22.4604L29.0682 17.2995C29.7819 16.0944 29.3584 14.5536 28.1221 13.8578C26.8859 13.1621 25.3052 13.575 24.5914 14.78L16.4913 28.4558C14.5679 28.4561 12.89 29.4805 12 31C12.0048 30.9918 12.0096 30.9837 12.0144 30.9755L22.353 13.5203C23.7805 11.1102 26.942 10.2845 29.4145 11.6759C31.8869 13.0674 32.734 16.1491 31.3066 18.5592Z" fill="url(#paint5_linear_1_17)"/>
<path d="M27.949 16.6696L20.9681 28.4558H17.9836L25.7106 15.4099C26.0675 14.8074 26.8579 14.6009 27.476 14.9488C28.0941 15.2966 28.3059 16.0671 27.949 16.6696Z" fill="url(#paint6_linear_1_17)"/>
<defs>
<linearGradient id="paint0_linear_1_17" x1="25.6472" y1="5.00882" x2="25.6472" y2="46.3241" gradientUnits="userSpaceOnUse">
<stop stop-color="#0A56FF"/>
<stop offset="1" stop-color="#0F0565"/>
</linearGradient>
<linearGradient id="paint1_linear_1_17" x1="11" y1="33.5" x2="37" y2="33.5" gradientUnits="userSpaceOnUse">
<stop offset="0.2" stop-color="white"/>
<stop offset="0.8" stop-color="#4B4C58" stop-opacity="0.8"/>
</linearGradient>
<linearGradient id="paint2_linear_1_17" x1="11" y1="33.5" x2="37" y2="33.5" gradientUnits="userSpaceOnUse">
<stop offset="0.2" stop-color="white"/>
<stop offset="0.8" stop-color="#4B4C58" stop-opacity="0.8"/>
</linearGradient>
<linearGradient id="paint3_linear_1_17" x1="39.9901" y1="36.9774" x2="26.8606" y2="14.6922" gradientUnits="userSpaceOnUse">
<stop offset="0.2" stop-color="white"/>
<stop offset="0.8" stop-color="#4B4C58"/>
</linearGradient>
<linearGradient id="paint4_linear_1_17" x1="39.9901" y1="36.9774" x2="26.8606" y2="14.6922" gradientUnits="userSpaceOnUse">
<stop offset="0.2" stop-color="white"/>
<stop offset="0.8" stop-color="#4B4C58"/>
</linearGradient>
<linearGradient id="paint5_linear_1_17" x1="28.8513" y1="11.4217" x2="16.1843" y2="34.2493" gradientUnits="userSpaceOnUse">
<stop offset="0.2" stop-color="white"/>
<stop offset="0.8" stop-color="#4B4C58"/>
</linearGradient>
<linearGradient id="paint6_linear_1_17" x1="28.8513" y1="11.4217" x2="16.1843" y2="34.2493" gradientUnits="userSpaceOnUse">
<stop offset="0.2" stop-color="white"/>
<stop offset="0.8" stop-color="#4B4C58"/>
</linearGradient>
</defs>
</svg>
